<?xml version="1.0" encoding="iso-8859-1"?>
<!-- Uploaded to: SVG Repo, www.svgrepo.com, Generator: SVG Repo Mixer Tools -->
<svg fill="#000000" height="800px" width="800px" version="1.1" id="Capa_1" xmlns="http://www.w3.org/2000/svg"
	 viewBox="0 0 41.683 41.683" xml:space="preserve">
<g>
	<g id="b66_food">
		<path d="M28.024,20.839c0-4.183,3.345-7.569,7.469-7.569v-0.321c0,0-27.929,0-28.503,0c-3.861,0-6.99,3.533-6.99,7.892
			c0,4.357,3.129,7.892,6.99,7.892c0.573,0,28.503,0,28.503,0v-0.324C31.368,28.407,28.024,25.021,28.024,20.839z"/>
        <path d="M35.492,13.921c-3.418,0-6.188,3.097-6.188,6.918c0,3.818,2.769,6.918,6.188,6.918s6.191-3.098,6.191-6.918
			S38.912,13.921,35.492,13.921z M33.563,22.86c-0.56,0-1.011-0.453-1.011-1.01c0-0.561,0.451-1.013,1.011-1.013
			c0.558,0,1.011,0.452,1.011,1.013C34.574,22.407,34.123,22.86,33.563,22.86z M33.929,17.144c-0.355,0-0.645-0.288-0.645-0.644
			s0.288-0.644,0.645-0.644c0.355,0,0.645,0.288,0.645,0.644C34.574,16.855,34.286,17.144,33.929,17.144z M36.873,23.396
			c-0.255,0-0.459-0.205-0.459-0.461c0-0.252,0.204-0.457,0.459-0.457c0.254,0,0.461,0.205,0.461,0.457
			C37.334,23.191,37.127,23.396,36.873,23.396z M37.334,20.087c-0.511,0-0.922-0.413-0.922-0.921s0.41-0.92,0.922-0.92
			c0.506,0,0.92,0.412,0.92,0.92S37.839,20.087,37.334,20.087z M39.356,24.055c-0.608,0-1.103-0.493-1.103-1.103
			s0.494-1.103,1.103-1.103c0.61,0,1.104,0.491,1.104,1.103C40.461,23.562,39.966,24.055,39.356,24.055z"/>
	</g>
    <g id="Capa_1_52_">
	</g>
</g>
</svg>